<?xml version="1.0" encoding="UTF-8" standalone="no"?>
<svg
   data-name="Layer 1"
   width="889.07556"
   height="399.73227"
   viewBox="0 0 889.07556 399.73227"
   version="1.1"
   id="svg12169"
   sodipodi:docname="newLogo2.svg"
   inkscape:export-filename="newLogoBrown.png"
   inkscape:export-xdpi="96"
   inkscape:export-ydpi="96"
   xmlns:inkscape="http://www.inkscape.org/namespaces/inkscape"
   xmlns:sodipodi="http://sodipodi.sourceforge.net/DTD/sodipodi-0.dtd"
   xmlns="http://www.w3.org/2000/svg"
   xmlns:svg="http://www.w3.org/2000/svg">
  <defs
     id="defs12173" />
  <sodipodi:namedview
     id="namedview12171"
     pagecolor="#ffffff"
     bordercolor="#000000"
     borderopacity="0.25"
     inkscape:showpageshadow="2"
     inkscape:pageopacity="0.0"
     inkscape:pagecheckerboard="0"
     inkscape:deskcolor="#d1d1d1"
     showgrid="false" />
  <title
     id="title12065">welcome_cats</title>
  <g
     id="g9761-4-5"
     transform="matrix(8.717791,0,0,9.1027487,278.14008,-2027.0594)">
    <g
       id="g1819">
      <ellipse
         cx="444.53778"
         cy="398.16855"
         rx="444.53778"
         ry="12.43462"
         fill="#e6e6e6"
         id="ellipse12067"
         transform="matrix(0.11470796,0,0,0.10985693,-31.90488,216.13385)" />
      <polygon
         points="481.05,396.333 481.05,381.67 422.399,381.67 422.399,263.451 481.05,263.451 481.05,248.788 407.736,248.788 407.736,249.705 407.736,263.451 407.736,381.67 407.736,396.333 422.399,396.333 "
         fill="#3f3d56"
         id="polygon12141"
         transform="matrix(0.11470796,0,0,0.10985693,-31.90488,216.13385)" />
      <path
         d="m 516.79053,248.78833 v 147.54443 h 73.314 V 248.78833 Z m 58.65118,132.8816 h -43.9884 V 263.45118 h 43.9884 z"
         fill="#6c63ff"
         id="path12143"
         style="fill:#a09696;fill-opacity:1"
         transform="matrix(0.11470796,0,0,0.10985693,-31.90488,216.13385)" />
      <polygon
         points="313.344,381.67 313.344,249.705 298.681,249.705 298.681,381.67 298.681,396.333 313.344,396.333 371.995,396.333 371.995,381.67 "
         fill="#6c63ff"
         id="polygon12145"
         style="fill:#a09696;fill-opacity:1"
         transform="matrix(0.11470796,0,0,0.10985693,-31.90488,216.13385)" />
      <polygon
         points="192.376,396.333 207.039,396.333 265.69,396.333 265.69,381.67 207.039,381.67 207.039,329.434 265.69,329.434 265.69,314.771 207.039,314.771 207.039,263.451 265.69,263.451 265.69,248.788 192.376,248.788 192.376,249.705 192.376,263.451 192.376,314.771 192.376,329.434 192.376,381.67 "
         fill="#3f3d56"
         id="polygon12147"
         transform="matrix(0.11470796,0,0,0.10985693,-31.90488,216.13385)" />
      <polygon
         points="766.058,396.333 780.721,396.333 839.372,396.333 839.372,381.67 780.721,381.67 780.721,329.434 839.372,329.434 839.372,314.771 780.721,314.771 780.721,263.451 839.372,263.451 839.372,248.788 766.058,248.788 766.058,249.705 766.058,263.451 766.058,314.771 766.058,329.434 766.058,381.67 "
         fill="#6c63ff"
         id="polygon12149"
         style="fill:#a09696;fill-opacity:1"
         transform="matrix(0.11470796,0,0,0.10985693,-31.90488,216.13385)" />
      <polygon
         points="49.872,395.875 64.535,395.875 64.535,392.496 104.147,352.884 142.889,391.627 142.889,396.333 157.552,396.333 157.552,249.705 142.889,249.705 142.889,370.89 104.228,332.23 104.14,332.319 104.058,332.237 64.535,371.76 64.535,249.247 49.872,249.247 "
         fill="#3f3d56"
         id="polygon12151"
         transform="matrix(0.11470796,0,0,0.10985693,-31.90488,216.13385)" />
      <polygon
         points="639.133,274.689 677.794,313.35 677.883,313.261 677.964,313.342 717.488,273.819 717.488,396.333 732.15,396.333 732.15,249.705 717.488,249.705 717.488,253.083 677.876,292.695 639.133,253.953 639.133,249.247 624.47,249.247 624.47,395.875 639.133,395.875 "
         fill="#3f3d56"
         id="polygon12153"
         transform="matrix(0.11470796,0,0,0.10985693,-31.90488,216.13385)" />
      <circle
         cx="335.07556"
         cy="150.37952"
         r="9"
         fill="#6c63ff"
         id="circle12155"
         style="fill:#a09696;fill-opacity:1"
         transform="matrix(0.11470796,0,0,0.10985693,-31.90488,216.13385)" />
      <circle
         cx="113.07556"
         cy="250.37952"
         r="9"
         fill="#6c63ff"
         id="circle12157"
         style="fill:#a09696;fill-opacity:1"
         transform="matrix(0.11470796,0,0,0.10985693,-31.90488,216.13385)" />
      <circle
         cx="291.07556"
         cy="450.37952"
         r="9"
         fill="#6c63ff"
         id="circle12159"
         style="fill:#a09696;fill-opacity:1"
         transform="matrix(0.11470796,0,0,0.10985693,-31.90488,216.13385)" />
      <circle
         cx="517.07556"
         cy="177.37952"
         r="9"
         fill="#6c63ff"
         id="circle12161"
         style="fill:#a09696;fill-opacity:1"
         transform="matrix(0.11470796,0,0,0.10985693,-31.90488,216.13385)" />
      <circle
         cx="782.07556"
         cy="442.37952"
         r="9"
         fill="#6c63ff"
         id="circle12163"
         style="fill:#a09696;fill-opacity:1"
         transform="matrix(0.11470796,0,0,0.10985693,-31.90488,216.13385)" />
      <circle
         cx="791.07556"
         cy="206.37952"
         r="9"
         fill="#6c63ff"
         id="circle12165"
         style="fill:#a09696;fill-opacity:1"
         transform="matrix(0.11470796,0,0,0.10985693,-31.90488,216.13385)" />
      <circle
         cx="677.07556"
         cy="368.37952"
         r="9"
         fill="#6c63ff"
         id="circle12167"
         style="fill:#a09696;fill-opacity:1"
         transform="matrix(0.11470796,0,0,0.10985693,-31.90488,216.13385)" />
      <g
         id="g3255-0-8"
         transform="matrix(0.73779271,0,0,0.84121382,10.881601,15.057761)"
         style="fill:#a09696;fill-opacity:1;stroke:#a09696;stroke-opacity:1">
        <g
           id="g3153-4-8"
           transform="translate(-12.435248,-96.87926)"
           style="fill:#a09696;fill-opacity:1;stroke:#a09696;stroke-opacity:1" />
        <g
           id="g9359-6-3"
           transform="matrix(0.41740352,0,0,0.3160816,2.6588993,242.95266)"
           style="fill:#a09696;fill-opacity:1;stroke:#a09696;stroke-opacity:1">
          <rect
             style="fill:#a09696;fill-opacity:1;stroke:#a09696;stroke-width:2.218;stroke-linecap:round;stroke-linejoin:round;stroke-opacity:1;paint-order:stroke markers fill"
             id="rect9213-3-0-5"
             width="4.8306866"
             height="29.411991"
             x="133.50482"
             y="13.345611" />
          <circle
             style="fill:#a09696;fill-opacity:1;stroke:#a09696;stroke-width:2.04683;stroke-linecap:round;stroke-opacity:1;paint-order:stroke markers fill"
             id="path9330-3-2"
             cx="136.35394"
             cy="53.355888"
             r="4.0914826" />
        </g>
      </g>
      <g
         id="g934-9-6"
         transform="matrix(-0.03448917,0.08151811,-0.10618299,-0.04774713,66.154826,238.2085)"
         style="fill:#a09696;fill-opacity:1;stroke:#a09696;stroke-opacity:0">
        <path
           sodipodi:type="star"
           style="fill:#a09696;fill-opacity:1;stroke:#a09696;stroke-width:8.99999;stroke-linecap:round;stroke-opacity:0;paint-order:stroke markers fill"
           id="path236-4-7"
           inkscape:flatsided="true"
           sodipodi:sides="3"
           sodipodi:cx="61.308662"
           sodipodi:cy="70.273605"
           sodipodi:r1="59.579834"
           sodipodi:r2="29.789917"
           sodipodi:arg1="0.91273314"
           sodipodi:arg2="1.9599307"
           inkscape:rounded="1.09"
           inkscape:randomized="0"
           d="M 97.746833,117.41187 C 8.7528286,186.20479 17.346046,189.72838 2.2666393,78.260853 -12.812767,-33.206672 -20.160896,-27.526523 83.912515,15.14809 187.98593,57.822703 186.74084,48.618962 97.746833,117.41187 Z"
           inkscape:transform-center-x="-13.222085"
           inkscape:transform-center-y="4.6897957"
           transform="matrix(0.75871679,-0.00358655,-0.00358655,0.77116814,35.780022,115.83749)" />
        <ellipse
           style="fill:#a09696;fill-opacity:1;stroke:#a09696;stroke-width:3;stroke-linecap:round;stroke-dasharray:none;stroke-opacity:0;paint-order:stroke markers fill"
           id="path2820-1-8"
           cx="153.31303"
           cy="-90.208656"
           transform="rotate(104.97293)"
           rx="44.101753"
           ry="38.462509" />
      </g>
      <path
         sodipodi:type="star"
         style="fill:#a09696;fill-opacity:1;stroke:#a09696;stroke-width:3;stroke-linecap:round;stroke-dasharray:none;stroke-opacity:0.996078;paint-order:stroke markers fill"
         id="path2907-3-4"
         inkscape:flatsided="true"
         sodipodi:sides="3"
         sodipodi:cx="116.9519"
         sodipodi:cy="158.48624"
         sodipodi:r1="90.131783"
         sodipodi:r2="45.065891"
         sodipodi:arg1="0.39852245"
         sodipodi:arg2="1.44572"
         inkscape:rounded="1.09"
         inkscape:randomized="0"
         d="M 200.02054,193.46251 C 133.9876,350.29073 147.928,348.53797 45.127239,212.93765 -57.673517,77.337342 -63.125778,90.286461 105.70792,69.05855 274.54161,47.830639 266.05347,36.634283 200.02054,193.46251 Z"
         transform="matrix(0.04823058,9.4453452e-4,0.0038013,0.01675902,36.192399,238.54595)"
         inkscape:transform-center-x="-10.722648"
         inkscape:transform-center-y="6.1269621" />
      <ellipse
         style="fill:#ffffff;fill-opacity:0.996078;stroke:#a09696;stroke-width:0.305581;stroke-linecap:round;stroke-dasharray:none;stroke-opacity:0.996078;paint-order:stroke markers fill"
         id="path2913-7-1"
         cx="-196.4875"
         cy="-164.37666"
         transform="matrix(-0.8125742,-0.58285777,0.67495216,-0.7378615,0,0)"
         rx="1.7334592"
         ry="1.0411971" />
      <ellipse
         style="fill:#ffffff;fill-opacity:0.996078;stroke:#a09696;stroke-width:0.305581;stroke-linecap:round;stroke-dasharray:none;stroke-opacity:0.996078;paint-order:stroke markers fill"
         id="path2913-6-8-7"
         cx="-191.62048"
         cy="-165.65213"
         transform="matrix(-0.8125742,-0.58285777,0.67495216,-0.7378615,0,0)"
         rx="1.7334592"
         ry="1.0411971" />
      <rect
         style="fill:#ffffff;fill-opacity:0.996078;stroke:#fbffff;stroke-width:0.357171;stroke-linecap:round;stroke-dasharray:none;stroke-opacity:0;paint-order:stroke markers fill"
         id="rect5085-3-8"
         width="2.3427417"
         height="0.25148606"
         x="-91.820663"
         y="211.83673"
         transform="matrix(0.75766459,-0.65264414,0.53838845,0.84269679,0,0)" />
      <rect
         style="fill:#ffffff;fill-opacity:0.996078;stroke:#fbffff;stroke-width:0.357194;stroke-linecap:round;stroke-dasharray:none;stroke-opacity:0;paint-order:stroke markers fill"
         id="rect5085-9-8-7"
         width="2.5489664"
         height="0.23116985"
         x="210.04965"
         y="91.687889"
         transform="matrix(0.54256103,0.84001639,-0.75382047,0.65708043,0,0)" />
    </g>
  </g>
</svg>
